<svg xmlns="http://www.w3.org/2000/svg" viewBox="0 0 157.8 59.4" xml:space="preserve">
					  <g fill="#7C7C7C">
					    <path d="M13.6 12.9c-1.3-1.3-2.9-1.7-4.7-1.7-2.2 0-3.4.7-3.4 1.9S6.6 15 9 15.2c3.6.2 8.1 1 8.1 6 0 3.3-2.7 6.2-8.1 6.2-3 0-6-.5-8.7-3.4l2.3-3.3c1.3 1.5 4.4 2.6 6.5 2.6 1.8 0 3.4-.9 3.4-2.3 0-1.3-1.1-1.8-3.8-2-3.6-.3-7.8-1.6-7.8-5.9 0-4.4 4.5-5.9 8-5.9 2.9 0 5.2.6 7.3 2.5l-2.6 3.2zM59 7.9h4.5v18.9h-4.4l-.3-2.8c-1.1 2.2-4 3.3-6.1 3.3-5.6 0-9.7-3.4-9.7-10 0-6.5 4.3-9.9 9.8-9.9 2.5 0 4.9 1.2 6 3.1l.2-2.6zm-11.3 9.4c0 3.6 2.5 5.7 5.6 5.7 7.3 0 7.3-11.4 0-11.4-3.2 0-5.6 2.1-5.6 5.7zM87 0v26.8h-4.4l-.3-2.6c-1.5 2.3-3.8 3-6.1 3-5.6 0-9.7-3.7-9.7-9.9 0-6.5 4.1-9.9 9.6-9.9 2 0 5.1 1.1 6.2 3V0H87zM71.2 17.3c0 3.3 2.4 5.5 5.4 5.5 2.9 0 5.5-2.1 5.5-5.5 0-3.3-2.5-5.5-5.5-5.5s-5.4 2.1-5.4 5.5zM95.4 19c.3 2.3 2.3 4 5.6 4 1.7 0 4-.6 5.1-1.8l3 2.9c-2 2.1-5.2 3.1-8.1 3.1-6.5 0-10.4-4-10.4-10.1 0-5.7 3.9-9.9 10-9.9 6.3 0 10.3 3.9 9.5 11.7H95.4zm10.3-3.9c-.3-2.4-2.2-3.7-4.9-3.7-2.5 0-4.6 1.2-5.3 3.7h10.2zM16.1 49.2c-1.9 1.9-4.3 2.8-6.7 2.8-5.2 0-9.5-3.6-9.5-9.4s4.1-9.4 9.5-9.4c2.4 0 4.8.9 6.7 2.8L15 37.1c-1.5-1.5-3.5-2.2-5.5-2.2-4.2 0-7.7 2.7-7.7 7.7 0 4.9 3.5 7.7 7.7 7.7 2 0 4-.8 5.5-2.3l1.1 1.2zM19.4 42.6c0-5.8 4.2-9.6 9.3-9.6s9.3 3.7 9.3 9.6-4.1 9.4-9.3 9.4-9.3-3.6-9.3-9.4zm16.9 0c0-4.8-3.4-7.8-7.6-7.8-4.2 0-7.6 3.1-7.6 7.8s3.4 7.6 7.6 7.6c4.2 0 7.6-2.9 7.6-7.6zM69.5 51.7v-11c0-3.5-2.4-6-5.9-6-3.5 0-5.9 2.6-5.9 6.1v10.9h-1.8V40.8c0-3.5-2.4-6.1-5.9-6.1-3.5 0-5.9 2.6-5.9 6.1v10.9h-1.8V33.4H44v3c1.3-2.4 3.6-3.4 6-3.4 2.8 0 5.7 1.3 6.8 4.5 1.1-3 4-4.5 6.8-4.5 4.5 0 7.7 3.2 7.7 7.7v11h-1.8zM76.1 59.4v-26h1.8v4.4c1.5-2.8 4.4-4.6 8-4.6 5 .2 8.9 3.5 8.9 9.5 0 6.2-4.2 9.5-9.3 9.5-3.1 0-6-1.5-7.6-4.6v11.9h-1.8zm16.8-16.9c0-5.2-3.3-7.7-7.5-7.7-4.3 0-7.4 3.2-7.4 7.7s3.2 7.7 7.4 7.7c4.2.1 7.5-2.5 7.5-7.7zM116.9 33.4v18.4h-1.8v-3.9c-1.8 2.9-4.5 4.2-7.5 4.2-5.1 0-9.3-3.9-9.3-9.5s4.2-9.4 9.3-9.4c3 0 6 1.4 7.5 4.2v-4h1.8zM100 42.5c0 4.6 3.3 7.7 7.5 7.7 10.2 0 10.2-15.4 0-15.4-4.1.1-7.5 3.1-7.5 7.7zM123.6 33.4v3.3c1.4-2.5 4-3.6 6.5-3.6 4.9 0 8.3 3 8.3 8.1v10.6h-1.8V41.2c0-4.2-2.6-6.4-6.5-6.4-3.8 0-6.4 2.9-6.4 6.7v10.2h-1.8V33.4h1.7zM157.8 33.4l-11.2 26h-1.9l3.4-7.9-7.4-18.2h2l4.3 10.9 2.2 5.3 2.1-5.4 4.6-10.8h1.9zM24.8 30.3v-5.8c1.3 2.1 4.3 2.7 6.3 2.7 6 0 9.5-4.4 9.5-9.9s-3.9-9.9-9.7-9.9c-2.1 0-4.7.9-6.1 3l-.3-2.6h-4.4V33c1.3-1.3 2.9-2.2 4.7-2.7zM30.5 12c3.4 0 5.4 2.4 5.4 5.4 0 2.9-2.2 5.4-5.4 5.4s-5.4-2.4-5.4-5.4c.1-3 2.1-5.4 5.4-5.4z"></path>
					  </g>
					</svg>